<svg width="84" height="81" viewBox="0 0 84 81" fill="none" xmlns="http://www.w3.org/2000/svg">
<path d="M5.0311 47.6615L27.4896 20.8965C29.0437 19.0444 30.0319 16.7843 30.3363 14.3858L30.4575 13.4312C30.8691 10.1882 32.751 7.31536 35.5595 5.64247L38.1204 4.11708C39.1859 3.48243 40.4771 3.35003 41.6492 3.75523C42.6287 4.09387 43.4489 4.78206 43.9525 5.68793C44.5551 6.77188 44.6489 8.06642 44.2089 9.22592L43.1514 12.0128C41.9916 15.0691 39.4892 17.4213 36.3669 18.3898L35.4478 18.6749C33.1387 19.3912 31.0845 20.7569 29.5304 22.6089L7.07192 49.3739C6.74215 49.767 6.21596 49.9356 5.71914 49.8076C5.32917 49.7071 5.00558 49.4356 4.83891 49.069C4.62657 48.602 4.70132 48.0545 5.0311 47.6615Z" stroke="white"/>
<path d="M77.3741 30.9998L50.2113 63.3712C49.7273 63.9481 49.0469 64.3254 48.3013 64.4305C47.5557 64.5357 46.8753 64.913 46.3913 65.4898L39.2617 73.9865C38.984 74.3174 39.0272 74.8108 39.3582 75.0885C39.6891 75.3662 40.1825 75.3231 40.4602 74.9921L43.9261 70.8616C44.2038 70.5306 44.6972 70.4875 45.0282 70.7652C45.3591 71.0429 45.4023 71.5363 45.1246 71.8672L41.6587 75.9978C41.381 76.3287 41.4242 76.8221 41.7551 77.0998C42.0861 77.3775 42.5795 77.3343 42.8572 77.0034L46.3231 72.8729C46.6008 72.5419 47.0942 72.4988 47.4252 72.7765C47.7561 73.0542 47.7993 73.5476 47.5216 73.8785L44.0556 78.009C43.7779 78.34 43.8211 78.8334 44.1521 79.1111C44.483 79.3888 44.9764 79.3456 45.2541 79.0147L51.985 70.9932C52.6951 70.1469 52.8907 68.9821 52.496 67.9503C52.1012 66.9184 52.2968 65.7537 53.007 64.9073L79.7711 33.0111C80.1362 32.576 80.2368 31.9771 80.0338 31.4465C79.8406 30.9414 79.4003 30.572 78.8693 30.4694C78.3116 30.3616 77.7393 30.5647 77.3741 30.9998Z" stroke="white"/>
<path d="M59.3162 18.6862L19.9705 60.4012C19.8344 60.5455 19.6427 60.6241 19.4445 60.6167C19.0648 60.6025 18.7686 60.2832 18.7828 59.9036L18.7844 59.8593C18.7909 59.6865 18.8583 59.5215 18.9747 59.3937L57.6025 16.9706C58.0352 16.4954 58.7975 16.5459 59.1637 17.0742L59.4106 17.4303C59.6798 17.8187 59.6404 18.3424 59.3162 18.6862Z" stroke="white"/>
<path d="M30.2679 49.6862L31.5583 49.041C31.6302 49.005 31.6959 48.9577 31.7528 48.9008C32.2243 48.4293 33.0305 48.7632 33.0305 49.4301V52.5302C33.0305 53.0557 33.6161 53.369 34.0533 53.0776C34.4904 52.7861 35.076 53.0995 35.076 53.6249V56.3132C35.076 56.4286 35.0855 56.5439 35.1045 56.6578L35.1345 56.838C35.4908 58.9754 34.202 61.0443 32.1265 61.667L30.6405 62.1128C29.5299 62.446 28.3471 62.4537 27.2322 62.1352L26.9449 62.0531C25.1748 61.5474 23.6981 60.3219 22.8748 58.6753L22.4009 57.7274C21.4197 55.7649 21.8043 53.3948 23.3557 51.8433C24.3117 50.8874 25.6082 50.3503 26.9601 50.3503H27.4545C28.4312 50.3503 29.3944 50.1229 30.2679 49.6862Z" fill="white" stroke="white"/>
<path d="M63.2585 21.8771L28.5518 67.5243C28.4318 67.6822 28.2494 67.7806 28.0515 67.7943C27.6725 67.8204 27.3441 67.5343 27.318 67.1553L27.315 67.111C27.3031 66.9385 27.3527 66.7674 27.4549 66.6279L61.3728 20.3527C61.7527 19.8342 62.5161 19.8038 62.9362 20.2903L63.2194 20.6183C63.5282 20.9759 63.5445 21.5009 63.2585 21.8771Z" fill="white" stroke="white"/>
</svg>
