<svg width="83" height="79" viewBox="0 0 83 79" fill="none" xmlns="http://www.w3.org/2000/svg">
<path d="M53.0436 22.2763L9.52507 70.3682C9.14072 70.793 8.48851 70.8356 8.05215 70.4645V70.4645C7.5964 70.0769 7.55146 69.3892 7.95289 68.9456L51.4277 20.902M53.0436 22.2763L51.4277 20.902M53.0436 22.2763L54.5128 20.6527M51.4277 20.902L52.8092 19.3753M54.5128 20.6527L52.8092 19.3753M54.5128 20.6527L55.8944 19.126M52.8092 19.3753L54.2784 17.7517M55.8944 19.126L54.2784 17.7517M55.8944 19.126L57.3636 17.5024M54.2784 17.7517L55.6599 16.225M57.3636 17.5024L55.6599 16.225M57.3636 17.5024L58.7451 15.9757M55.6599 16.225L57.1291 14.6014M58.7451 15.9757L70.239 3.27395C70.4328 3.05972 70.5296 2.77491 70.5063 2.48693V2.48693C70.4597 1.91044 69.9546 1.48087 69.3781 1.52746L69.3512 1.52964C69.0786 1.55167 68.8246 1.67683 68.6411 1.87961L57.1291 14.6014M58.7451 15.9757L57.1291 14.6014M14.9118 74.9513L54.7271 31.0831C57.1131 28.4542 60.4103 26.8321 63.949 26.5461L76.8808 25.501C77.4313 25.4565 77.8415 24.9742 77.797 24.4237V24.4237C77.7525 23.8732 77.2702 23.463 76.7197 23.5075L63.0757 24.6101C59.3543 24.9109 55.8871 26.6174 53.3789 29.3829L13.3413 73.5264C12.939 73.9699 12.9836 74.6584 13.4397 75.0464V75.0464C13.8757 75.4171 14.5272 75.375 14.9118 74.9513Z" stroke="white"/>
<path d="M44.6613 76.6491L42.4456 76.6624C41.9505 76.6654 41.472 76.4846 41.1024 76.1551L32.3289 68.3307C31.9594 68.0011 31.7253 67.5463 31.6718 67.0541L31.4447 64.9645C31.4369 64.8925 31.46 64.8205 31.5082 64.7664V64.7664M44.6613 76.6491L62.632 56.4984M44.6613 76.6491L31.5082 64.7664M49.4032 44.7007L51.6188 44.6873C52.1139 44.6844 52.5925 44.8651 52.962 45.1947L61.7356 53.0191C62.1051 53.3486 62.3392 53.8035 62.3927 54.2957L62.632 56.4984M49.4032 44.7007L62.632 56.4984M49.4032 44.7007L31.5082 64.7664" stroke="white"/>
<circle cx="46.3018" cy="61.0178" r="6" transform="rotate(-3.56527 46.3018 61.0178)" stroke="white"/>
<path d="M53.9158 61.9111C49.9884 61.2027 44.0837 60.9685 39.3842 63.1089C38.3771 63.5675 37.5154 62.7851 38.3877 62.1041C41.2693 59.8547 46.1158 57.901 53.5954 58.2888C53.9733 58.3084 54.3096 58.5465 54.4558 58.8956L55.1159 60.4713C55.4368 61.2374 54.7331 62.0585 53.9158 61.9111Z" fill="white" stroke="white"/>
<path d="M44.4284 12.4105L46.2672 10.335M43.3511 11.4943L44.2737 10.4961M45.0946 13.4414L35.639 25.2893C35.3098 25.7017 35.0481 26.1636 34.8633 26.6579L33.3168 30.7965C32.4979 32.9879 31.2813 35.0093 29.7282 36.7589L15.7104 52.5504C13.869 54.6248 10.691 54.8038 8.6283 52.9494L4.83404 49.5383C2.78965 47.7003 2.61255 44.5567 4.43757 42.5007L18.1013 27.1081C19.9105 25.0699 22.1371 23.4448 24.6298 22.3431L28.1603 20.7827C28.726 20.5327 29.2404 20.1799 29.6773 19.7423L40.1595 9.24409L45.0946 13.4414ZM39.6208 8.78618L45.546 13.8253L48.1023 10.8882C48.465 10.4715 48.421 9.83966 48.0042 9.47713L43.8329 5.84935C43.4344 5.50284 42.8352 5.52582 42.4645 5.90184L39.6208 8.78618Z" stroke="white"/>
</svg>
