<svg width="103" height="93" viewBox="0 0 103 93" fill="none" xmlns="http://www.w3.org/2000/svg">
<path d="M34.7464 16.5205C35.0693 16.1356 35.6432 16.0854 36.0281 16.4083C36.413 16.7313 36.4632 17.3051 36.1402 17.69L3.51813 56.5675C3.19517 56.9524 2.62133 57.0026 2.23644 56.6796C1.85155 56.3567 1.80135 55.7828 2.12431 55.3979L34.7464 16.5205Z" fill="white" stroke="white"/>
<path d="M40.6487 15.3369C40.9717 14.952 41.5455 14.9018 41.9304 15.2247C42.3153 15.5477 42.3655 16.1215 42.0425 16.5064L9.42047 55.3839C9.09751 55.7688 8.52368 55.819 8.13879 55.496C7.7539 55.1731 7.70369 54.5992 8.02666 54.2143L40.6487 15.3369Z" fill="white" stroke="white"/>
<path d="M50.1741 9.83492C50.4971 9.45003 51.0709 9.39982 51.4558 9.72278C51.8407 10.0457 51.8909 10.6196 51.5679 11.0045L18.9459 49.8819C18.6229 50.2668 18.0491 50.317 17.6642 49.9941C17.2793 49.6711 17.2291 49.0973 17.552 48.7124L50.1741 9.83492Z" fill="white" stroke="white"/>
<path d="M56.0745 8.65132C56.3975 8.26643 56.9713 8.21623 57.3562 8.53919C57.7411 8.86215 57.7913 9.43598 57.4683 9.82087L24.8463 48.6983C24.5233 49.0832 23.9495 49.1334 23.5646 48.8105C23.1797 48.4875 23.1295 47.9137 23.4524 47.5288L56.0745 8.65132Z" fill="white" stroke="white"/>
<path d="M51.0999 20.4267C51.4229 20.0418 51.9967 19.9916 52.3816 20.3146C52.7665 20.6375 52.8167 21.2114 52.4937 21.5963L19.8716 60.4737C19.5487 60.8586 18.9749 60.9088 18.59 60.5859C18.2051 60.2629 18.1549 59.6891 18.4778 59.3042L51.0999 20.4267Z" fill="white" stroke="white"/>
<mask id="path-6-inside-1" fill="white">
<path fill-rule="evenodd" clip-rule="evenodd" d="M78.2437 13.7082C79.3347 12.5176 81.2178 10.2995 81.7515 9.6061L81.9829 9.33033C82.2062 9.06416 82.3491 8.75535 82.4126 8.43473L93.2802 17.5537C94.1263 18.2637 94.2367 19.5252 93.5267 20.3713L84.6263 30.9784C83.9163 31.8246 82.6548 31.9349 81.8086 31.2249L67.6094 19.3103C66.7632 18.6003 66.6529 17.3388 67.3629 16.4927L72.8144 9.99581C72.8968 10.4306 73.1262 10.8402 73.4901 11.1456L76.6201 13.7719C77.1452 14.2126 77.7805 14.2137 78.2437 13.7082Z"/>
</mask>
<path fill-rule="evenodd" clip-rule="evenodd" d="M78.2437 13.7082C79.3347 12.5176 81.2178 10.2995 81.7515 9.6061L81.9829 9.33033C82.2062 9.06416 82.3491 8.75535 82.4126 8.43473L93.2802 17.5537C94.1263 18.2637 94.2367 19.5252 93.5267 20.3713L84.6263 30.9784C83.9163 31.8246 82.6548 31.9349 81.8086 31.2249L67.6094 19.3103C66.7632 18.6003 66.6529 17.3388 67.3629 16.4927L72.8144 9.99581C72.8968 10.4306 73.1262 10.8402 73.4901 11.1456L76.6201 13.7719C77.1452 14.2126 77.7805 14.2137 78.2437 13.7082Z" fill="white"/>
<path d="M81.7515 9.6061L80.9855 8.96331L80.9719 8.97946L80.959 8.99617L81.7515 9.6061ZM78.2437 13.7082L78.9809 14.3838L78.9809 14.3838L78.2437 13.7082ZM82.4126 8.43473L83.0554 7.66868L81.7602 6.58188L81.4317 8.24042L82.4126 8.43473ZM93.5267 20.3713L94.2927 21.0141L93.5267 20.3713ZM84.6263 30.9784L83.8602 30.3356L84.6263 30.9784ZM67.3629 16.4927L66.5968 15.8499L67.3629 16.4927ZM72.8144 9.99581L73.7969 9.80961L73.4041 7.73723L72.0483 9.35302L72.8144 9.99581ZM80.959 8.99617C80.4482 9.65985 78.5853 11.8552 77.5064 13.0326L78.9809 14.3838C80.0841 13.1799 81.9873 10.9392 82.544 10.216L80.959 8.99617ZM81.2169 8.68754L80.9855 8.96331L82.5175 10.2489L82.7489 9.97312L81.2169 8.68754ZM81.4317 8.24042C81.4001 8.39998 81.3293 8.55358 81.2169 8.68754L82.7489 9.97312C83.0832 9.57475 83.2982 9.11073 83.3936 8.62903L81.4317 8.24042ZM81.7698 9.20077L92.6374 18.3197L93.9229 16.7876L83.0554 7.66868L81.7698 9.20077ZM92.6374 18.3197C93.0604 18.6747 93.1156 19.3055 92.7606 19.7285L94.2927 21.0141C95.3577 19.7449 95.1922 17.8526 93.9229 16.7876L92.6374 18.3197ZM92.7606 19.7285L83.8602 30.3356L85.3923 31.6212L94.2927 21.0141L92.7606 19.7285ZM83.8602 30.3356C83.5052 30.7587 82.8745 30.8139 82.4514 30.4589L81.1658 31.991C82.4351 33.056 84.3273 32.8904 85.3923 31.6212L83.8602 30.3356ZM82.4514 30.4589L68.2522 18.5443L66.9666 20.0764L81.1658 31.991L82.4514 30.4589ZM68.2522 18.5443C67.8291 18.1893 67.7739 17.5585 68.1289 17.1355L66.5968 15.8499C65.5318 17.1191 65.6974 19.0114 66.9666 20.0764L68.2522 18.5443ZM68.1289 17.1355L73.5804 10.6386L72.0483 9.35302L66.5968 15.8499L68.1289 17.1355ZM74.1329 10.3795C73.9501 10.2261 73.8374 10.0234 73.7969 9.80961L71.8319 10.182C71.9562 10.8378 72.3023 11.4543 72.8473 11.9116L74.1329 10.3795ZM77.2629 13.0059L74.1329 10.3795L72.8473 11.9116L75.9773 14.5379L77.2629 13.0059ZM77.5064 13.0326C77.4681 13.0744 77.4421 13.0888 77.4341 13.0926C77.4318 13.0938 77.4301 13.0944 77.4292 13.0947C77.4282 13.0951 77.4277 13.0952 77.4276 13.0952C77.4276 13.0953 77.4276 13.0952 77.4277 13.0952C77.4278 13.0952 77.4278 13.0952 77.4274 13.0952C77.427 13.0952 77.4241 13.0953 77.4185 13.0943C77.4127 13.0933 77.4031 13.091 77.3896 13.0858C77.3625 13.0753 77.3186 13.0527 77.2629 13.0059L75.9773 14.5379C76.3903 14.8845 76.9116 15.1103 77.4828 15.0945C78.0654 15.0783 78.5875 14.8132 78.9809 14.3838L77.5064 13.0326Z" fill="white" mask="url(#path-6-inside-1)"/>
<path d="M82.5898 11.1719L86.5899 14.5283L84.0407 17.5664M88.2741 15.9416L92.0637 19.1214L89.5144 22.1594M82.9632 22.2708L86.7528 25.4506L84.2035 28.4887" stroke="white"/>
<rect x="68.2667" y="15.3372" width="22.6351" height="35.3541" rx="0.5" transform="rotate(40 68.2667 15.3372)" fill="white" stroke="white"/>
<rect x="64.003" y="23.8402" width="13.291" height="23.4564" rx="0.5" transform="rotate(40 64.003 23.8402)" fill="white" stroke="white"/>
<rect x="63.8956" y="47.9105" width="2.84757" height="4.94885" rx="0.5" transform="rotate(40 63.8956 47.9105)" fill="white" stroke="white"/>
<rect x="75.3386" y="33.9214" width="0.549654" height="15.9749" rx="0.274827" transform="rotate(40 75.3386 33.9214)" fill="white" stroke="white" stroke-width="0.549654"/>
<rect x="69.3796" y="43.5893" width="0.549654" height="4.73821" rx="0.274827" transform="rotate(40 69.3796 43.5893)" fill="white" stroke="white" stroke-width="0.549654"/>
<path d="M34.8135 65.1457L41.3458 70.627M31.5269 65.2722L42.1031 74.1467M39.751 48.522L38.4325 50.0934C38.1844 50.389 37.8344 50.5808 37.4516 50.6306V50.6306C37.0689 50.6804 36.7189 50.8722 36.4708 51.1678L18.4953 72.5902C18.2472 72.8859 18.1191 73.2639 18.1365 73.6495V73.6495C18.1539 74.035 18.0259 74.4131 17.7778 74.7087L16.4593 76.2801L33.8789 90.8969L35.1974 89.3255C35.4455 89.0299 35.7956 88.8382 36.1783 88.7883V88.7883C36.561 88.7385 36.9111 88.5467 37.1592 88.2511L55.1347 66.8287C55.3828 66.533 55.5108 66.155 55.4934 65.7694V65.7694C55.476 65.3839 55.6041 65.0058 55.8522 64.7102L57.1707 63.1388L39.751 48.522ZM25.2778 72.7195V72.7195C25.7485 72.1586 26.5847 72.0855 27.1455 72.5561L35.6907 79.7263C36.2515 80.1969 36.3247 81.0331 35.8541 81.594V81.594C35.3834 82.1549 34.5472 82.228 33.9864 81.7574L25.4412 74.5872C24.8804 74.1166 24.8072 73.2804 25.2778 72.7195ZM36.1183 62.6811L39.6622 64.4943C40.6102 64.9793 41.4363 65.6725 42.0786 66.5219L44.2513 69.3951C45.1776 70.62 46.8752 70.9557 48.1979 70.1754V70.1754C49.756 69.2564 50.1633 67.1838 49.069 65.7434L45.9887 61.6891C45.3892 60.9 44.6295 60.2468 43.7596 59.7724L39.0207 57.188C37.166 56.1765 34.8643 57.2714 34.4789 59.3487V59.3487C34.2281 60.6998 34.8949 62.0552 36.1183 62.6811Z" stroke="white"/>
<circle cx="78.3359" cy="70.5" r="8" fill="white" stroke="#3D3D3D"/>
<circle cx="74.3359" cy="75.5" r="8.5" fill="#3D3D3D"/>
<circle cx="94.3359" cy="51.5" r="8.5" fill="white"/>
</svg>
